<svg width="200" height="200" viewBox="0 0 200 200" fill="none" xmlns="http://www.w3.org/2000/svg">
<path fill-rule="evenodd" clip-rule="evenodd" d="M69.7719 161.334C71.1313 160.491 72.4468 159.447 73.65 158.244C95.8156 136.078 149.869 82.025 172.034 59.8593C174.613 57.2812 176.462 54.1813 177.175 51.2469C177.887 48.3125 177.406 45.7782 175.834 44.2063C175.831 44.2063 175.831 44.2063 175.831 44.2063C174.259 42.6344 171.728 42.1501 168.791 42.8626C165.856 43.5751 162.759 45.4251 160.178 48.0033L63.1813 145L22.847 104.666C21.6095 103.428 19.797 102.866 17.8095 103.1C15.8251 103.338 13.8251 104.353 12.2532 105.925L12.2499 105.928C10.6781 107.5 9.66258 109.497 9.42821 111.484C9.19072 113.472 9.75322 115.281 10.9907 116.519C21.6251 127.156 47.5625 153.091 58.1968 163.725C59.4343 164.966 61.2469 165.528 63.2313 165.291C65.2188 165.053 67.2187 164.038 68.7906 162.466C69.1469 162.106 69.4751 161.728 69.7719 161.334Z" fill="#97FB57"/>
</svg>
